<svg xmlns="http://www.w3.org/2000/svg" viewBox="0 0 512 512">
  <rect width="512" height="512" rx="120" fill="#184e77"/>
  <rect x="96" y="80" width="320" height="352" rx="34" fill="#fff8ed"/>
  <rect x="140" y="148" width="232" height="20" rx="10" fill="#184e77" opacity=".9"/>
  <rect x="140" y="208" width="190" height="20" rx="10" fill="#d6873d"/>
  <rect x="140" y="268" width="222" height="20" rx="10" fill="#2f6b53"/>
  <circle cx="118" cy="158" r="13" fill="#b84d2a"/>
  <circle cx="118" cy="218" r="13" fill="#d6873d"/>
  <circle cx="118" cy="278" r="13" fill="#2f6b53"/>
  <path d="M356 110l46 46v214c0 17-13 30-30 30H140c-17 0-30-13-30-30V110c0-17 13-30 30-30h186c12 0 23 5 30 13z" fill="none" stroke="#184e77" stroke-width="18" opacity=".18"/>
</svg>
